<?xml version="1.0" encoding="UTF-8" standalone="no"?>
<svg
   xmlns:dc="http://purl.org/dc/elements/1.1/"
   xmlns:cc="http://creativecommons.org/ns#"
   xmlns:rdf="http://www.w3.org/1999/02/22-rdf-syntax-ns#"
   xmlns:svg="http://www.w3.org/2000/svg"
   xmlns="http://www.w3.org/2000/svg"
   xmlns:xlink="http://www.w3.org/1999/xlink"
   width="100mm"
   height="100mm"
   viewBox="0 0 100 100"
   version="1.1"
   id="svg1031">
  <defs
     id="defs1025">
    <radialGradient
       xlink:href="#linearGradient963"
       id="radialGradient979"
       cx="412.76575"
       cy="819.19232"
       fx="412.76575"
       fy="819.19232"
       r="75.946289"
       gradientTransform="matrix(0.26458333,0,0,0.17670189,-23.519718,8.332263)"
       gradientUnits="userSpaceOnUse" />
    <linearGradient
       id="linearGradient963">
      <stop
         style="stop-color:#ffffff;stop-opacity:1"
         offset="0"
         id="stop959" />
      <stop
         style="stop-color:#800080;stop-opacity:1"
         offset="1"
         id="stop961" />
    </linearGradient>
    <radialGradient
       xlink:href="#linearGradient963"
       id="radialGradient971"
       gradientUnits="userSpaceOnUse"
       gradientTransform="matrix(5.5293138,-4.0289043,1.3429074,3.2894027,-784.89106,-134.16473)"
       cx="96.543755"
       cy="207.49683"
       fx="96.543755"
       fy="207.49683"
       r="24.505314" />
  </defs>
  <metadata
     id="metadata1028">
    <rdf:RDF>
      <cc:Work
         rdf:about="">
        <dc:format>image/svg+xml</dc:format>
        <dc:type
           rdf:resource="http://purl.org/dc/dcmitype/StillImage" />
        <dc:title></dc:title>
      </cc:Work>
    </rdf:RDF>
  </metadata>
  <g
     id="layer1"
     transform="translate(0,-197)">
    <ellipse
       transform="matrix(0.97886685,-0.20449865,0,1,0,0)"
       ry="27.223148"
       rx="31.495602"
       cy="246.48497"
       cx="38.095039"
       id="path832-2"
       style="opacity:0.98999999;fill:#ffffff;fill-opacity:1;stroke:none;stroke-width:1.66154754;stroke-linecap:round;stroke-linejoin:round;stroke-miterlimit:4;stroke-dasharray:none;stroke-dashoffset:0;stroke-opacity:1;paint-order:fill markers stroke" />
    <g
       transform="matrix(1.2852599,0,0,1.2852599,-81.994106,73.552908)"
       id="g992">
      <path
         id="ellipse836"
         d="m 117.15335,136.34157 a 23.672073,30.401302 55.316107 0 1 -24.344253,17.4873 23.672073,30.401302 55.316107 0 1 -5.681308,0.65939 v 8.69301 a 31.82847,41.093728 56.82433 0 0 5.681308,-0.76946 31.82847,41.093728 56.82433 0 0 34.506933,-26.07024 z"
         style="opacity:0.98999999;fill:url(#radialGradient979);fill-opacity:1;stroke:none;stroke-width:2.05217457;stroke-linecap:round;stroke-linejoin:round;stroke-miterlimit:4;stroke-dasharray:none;stroke-dashoffset:0;stroke-opacity:1;paint-order:fill markers stroke" />
      <path
         style="opacity:0.98999999;fill:url(#radialGradient971);fill-opacity:1;stroke:none;stroke-width:6.21317291;stroke-linecap:round;stroke-linejoin:round;stroke-miterlimit:4;stroke-dasharray:none;stroke-dashoffset:0;stroke-opacity:1;paint-order:fill markers stroke"
         d="m 164.08789,51.898438 c -7.61935,0.227997 -15.37413,1.161032 -23.14844,2.785156 C 76.585337,68.127929 24.415964,125.09276 24.416016,181.91797 c 4.68e-4,56.8248 52.169689,91.99137 116.523434,78.54687 24.59528,-5.18338 48.54368,-17.10254 68.41602,-34.05078 v -38.27929 l -122.296876,-0.01 -3.326172,-14.25391 c 15.211065,-6.31106 29.313168,-16.76227 40.705078,-26.68359 7.48619,-6.51978 14.1663,-15.59427 14.66992,-24.80469 0.36121,-6.606 -3.46095,-13.1653 -8.6582,-16.01758 -7.24239,-3.97467 -14.88691,-2.02967 -21.75781,1.36329 -5.27581,2.85922 -10.067176,7.21741 -13.687504,11.04492 L 79.021484,107.99391 C 90.587425,91.829592 108.10769,85.097941 126.45117,85.398208 c 8.93522,0.146262 19.4647,4.093354 23.27539,7.767578 29.364,28.312444 -0.0692,60.796394 -25.34765,74.472654 h 32.07031 l 57.0332,-74.816404 16.9707,-0.935547 v 75.798831 h 20.67774 c 4.15184,-11.5307 6.29037,-23.1709 6.33008,-34.45508 -5.1e-4,-48.944796 -39.04829,-82.957131 -93.37305,-81.332032 z m 45.17383,79.044922 -28.31055,36.69336 h 28.31055 z m 21.1914,57.19141 v 16.56835 c 4.16972,-5.33044 7.90626,-10.87285 11.16993,-16.56835 z"
         transform="matrix(0.20585979,0,0,0.20585979,63.79574,96.048349)"
         id="path832" />
      <path
         id="rect840"
         d="m 119.8214,130.55794 a 23.672073,30.401302 55.316107 0 1 -1.79575,4.20956 h 12.68087 l -2.8422,6.46834 h -1.81022 c -0.79659,1.58378 -1.8195,2.89757 -3.07113,4.20956 h 3.03185 l -5.7428,13.06949 h 5.15421 l 5.7428,-13.06949 h 2.52543 l 2.12648,-4.20956 h -2.80189 l 4.6917,-10.6779 h -5.15473 z"
         style="opacity:0.98999999;fill:#800080;fill-opacity:1;stroke:none;stroke-width:0.36829311;stroke-linecap:round;stroke-linejoin:round;stroke-miterlimit:4;stroke-dasharray:none;stroke-dashoffset:0;stroke-opacity:1;paint-order:fill markers stroke" />
      <g
         transform="translate(-23.519718,-62.00653)"
         style="fill:#ffffff"
         id="g856">
        <path
           id="path835"
           style="font-style:normal;font-variant:normal;font-weight:bold;font-stretch:normal;font-size:5.97738838px;line-height:1.25;font-family:Anivers;-inkscape-font-specification:'Anivers, Bold';font-variant-ligatures:normal;font-variant-caps:normal;font-variant-numeric:normal;font-feature-settings:normal;text-align:start;letter-spacing:0px;word-spacing:0px;writing-mode:lr-tb;text-anchor:start;fill:#ffffff;fill-opacity:1;stroke:none;stroke-width:0.44830418"
           d="m 123.91293,218.51124 c 0.49014,0.84896 1.31659,0.96539 2.20696,0.45134 0.90073,-0.52004 1.20277,-1.288 0.71262,-2.13696 l -0.34967,-0.60566 -0.0571,-0.0153 -1.25791,0.72625 -0.0153,0.0571 0.35421,0.4581 0.0571,0.0153 0.59531,-0.3437 0.0299,0.0518 c 0.30485,0.52802 0.0754,0.94349 -0.40087,1.21845 -0.46589,0.26898 -0.94502,0.22811 -1.24987,-0.29989 l -0.53199,-0.92144 c -0.29588,-0.51248 -0.10665,-0.97374 0.35924,-1.24272 0.55907,-0.32278 1.02776,0.0347 1.02776,0.0347 l 0.0607,-0.0144 0.38477,-0.50514 -0.006,-0.0585 c 0,0 -0.71909,-0.64776 -1.79581,-0.0261 -0.89037,0.51406 -1.19679,1.29835 -0.70365,2.15249 z" />
        <path
           id="path837"
           style="font-style:normal;font-variant:normal;font-weight:bold;font-stretch:normal;font-size:5.97738838px;line-height:1.25;font-family:Anivers;-inkscape-font-specification:'Anivers, Bold';font-variant-ligatures:normal;font-variant-caps:normal;font-variant-numeric:normal;font-feature-settings:normal;text-align:start;letter-spacing:0px;word-spacing:0px;writing-mode:lr-tb;text-anchor:start;fill:#ffffff;fill-opacity:1;stroke:none;stroke-width:0.44830418"
           d="m 128.29094,217.85749 0.0571,0.0153 0.56943,-0.32875 0.0153,-0.0571 -0.77706,-1.34591 0.14495,-0.0837 0.0697,0.001 1.13546,0.57992 c 0.0996,0.0529 0.55946,0.26367 1.0357,-0.0113 0.0466,-0.0269 0.14712,-0.0919 0.17523,-0.11491 l 0.0153,-0.0571 -0.20409,-0.54477 -0.0571,-0.0153 c 0,0 -0.0502,0.0566 -0.1537,0.11634 -0.176,0.10161 -0.35047,0.0505 -0.42774,0.0123 l -0.67239,-0.31581 -0.24655,-0.0923 c 0,0 0.80172,-0.60783 0.28169,-1.50855 -0.45727,-0.79201 -1.26493,-0.68462 -1.90683,-0.31402 l -1.01461,0.58578 -0.0153,0.0571 z m -0.44599,-2.25487 -0.59176,-1.02496 0.4193,-0.24209 c 0.36236,-0.20921 0.72259,-0.23083 0.93777,0.14188 0.21519,0.37272 0.0164,0.67387 -0.34601,0.88308 z" />
        <path
           id="path839"
           style="font-style:normal;font-variant:normal;font-weight:bold;font-stretch:normal;font-size:5.97738838px;line-height:1.25;font-family:Anivers;-inkscape-font-specification:'Anivers, Bold';font-variant-ligatures:normal;font-variant-caps:normal;font-variant-numeric:normal;font-feature-settings:normal;text-align:start;letter-spacing:0px;word-spacing:0px;writing-mode:lr-tb;text-anchor:start;fill:#ffffff;fill-opacity:1;stroke:none;stroke-width:0.44830418"
           d="m 130.56915,214.9426 c 0.49014,0.84896 1.3166,0.96539 2.20697,0.45133 0.90072,-0.52003 1.20793,-1.29099 0.71779,-2.13994 l -0.57981,-1.00425 c -0.49313,-0.85414 -1.32038,-0.98391 -2.2211,-0.46388 -0.89037,0.51406 -1.19679,1.29835 -0.70366,2.15249 z m 0.62835,-0.41797 -0.53498,-0.92661 c -0.29588,-0.51248 -0.10665,-0.97374 0.35924,-1.24272 0.47624,-0.27496 0.96515,-0.20522 1.26103,0.30726 l 0.53497,0.92661 c 0.30485,0.52801 0.10585,0.9604 -0.37039,1.23536 -0.46589,0.26898 -0.94502,0.22811 -1.24987,-0.2999 z" />
        <path
           id="path841"
           style="font-style:normal;font-variant:normal;font-weight:bold;font-stretch:normal;font-size:5.97738838px;line-height:1.25;font-family:Anivers;-inkscape-font-specification:'Anivers, Bold';font-variant-ligatures:normal;font-variant-caps:normal;font-variant-numeric:normal;font-feature-settings:normal;text-align:start;letter-spacing:0px;word-spacing:0px;writing-mode:lr-tb;text-anchor:start;fill:#ffffff;fill-opacity:1;stroke:none;stroke-width:0.44830418"
           d="m 134.15996,212.70809 c 0.59554,0.77866 1.43011,0.78752 2.24199,0.16656 0.82613,-0.63186 1.02186,-1.42874 0.42631,-2.20739 l -1.59053,-2.07956 -0.0586,-0.008 -0.47506,0.46117 -0.008,0.0586 1.51066,1.97512 c 0.37039,0.48427 0.23357,0.93508 -0.20798,1.2728 -0.42257,0.32319 -0.91246,0.35172 -1.28286,-0.13255 l -1.55786,-2.03684 -0.0586,-0.008 -0.47507,0.46117 -0.008,0.0586 z" />
        <path
           id="path843"
           style="font-style:normal;font-variant:normal;font-weight:bold;font-stretch:normal;font-size:5.97738838px;line-height:1.25;font-family:Anivers;-inkscape-font-specification:'Anivers, Bold';font-variant-ligatures:normal;font-variant-caps:normal;font-variant-numeric:normal;font-feature-settings:normal;text-align:start;letter-spacing:0px;word-spacing:0px;writing-mode:lr-tb;text-anchor:start;fill:#ffffff;fill-opacity:1;stroke:none;stroke-width:0.44830418"
           d="m 138.41781,211.06078 0.0551,-6e-4 0.49413,-0.43377 0.008,-0.0546 -0.93458,-1.06462 -0.27143,-0.25485 c 0.27967,0.12832 0.61119,-0.0195 0.81782,-0.20093 0.66484,-0.58362 0.57027,-1.34371 0.14044,-1.83335 -0.54024,-0.61541 -1.25836,-0.64518 -1.98158,-0.0103 l -0.93436,0.82023 -0.004,0.059 z m -0.80739,-2.04325 -0.85572,-0.97478 0.40429,-0.3549 c 0.36386,-0.31942 0.73502,-0.29527 1.01106,0.0192 0.33124,0.37734 0.12951,0.80895 -0.18044,1.08105 -0.1168,0.10252 -0.25332,0.18258 -0.37919,0.22947 z" />
      </g>
    </g>
  </g>
</svg>
